<?xml version="1.0" encoding="utf-8"?>
<!-- Generator: Adobe Illustrator 16.0.0, SVG Export Plug-In . SVG Version: 6.00 Build 0)  -->
<!DOCTYPE svg PUBLIC "-//W3C//DTD SVG 1.1//EN" "http://www.w3.org/Graphics/SVG/1.1/DTD/svg11.dtd">
<svg version="1.1" id="Layer_1" xmlns="http://www.w3.org/2000/svg" xmlns:xlink="http://www.w3.org/1999/xlink" x="0px" y="0px"
	 width="157.594px" height="48.29px" viewBox="0 0 157.594 48.29" enable-background="new 0 0 157.594 48.29" xml:space="preserve">
<g>
	<polygon fill="#292627" points="20.5,21.322 10.546,0.21 -0.155,0.21 -0.155,48.079 10.733,48.079 10.733,25.154 17.017,36.986 
		23.985,36.986 30.267,25.154 30.267,48.079 41.154,48.079 41.154,0.21 30.453,0.21 	"/>
	<path fill="#292627" d="M141.48,0.21h-8.396l-14.809,43.988l-13.489-24.624L119.905,0.21H106.59L93.774,17.152V0.21H83.011v47.869
		h10.763V33.086l3.731-4.64l10.205,19.632h20.642l2.177-7.125h13.625l2.053,7.125h11.387L141.48,0.21z M133.579,31.138l3.982-12.774
		l3.731,12.774H133.579z"/>
	<path fill="#292627" d="M49.728,5.187c-4.573,5.044-4.39,11.768-4.39,18.955c0,7.194-0.184,13.919,4.39,18.966
		c2.618,2.881,5.584,4.646,9.514,5.184V0C55.312,0.538,52.345,2.304,49.728,5.187z"/>
	<path fill="#292627" d="M74.015,5.187c-2.614-2.881-5.577-4.646-9.506-5.186V48.29c3.929-0.539,6.892-2.304,9.506-5.183
		c4.582-5.047,4.399-11.771,4.399-18.966C78.414,16.954,78.597,10.23,74.015,5.187z"/>
</g>
</svg>
