<?xml version="1.0" encoding="utf-8"?>
<!-- Generator: Adobe Illustrator 16.0.0, SVG Export Plug-In . SVG Version: 6.00 Build 0)  -->
<!DOCTYPE svg PUBLIC "-//W3C//DTD SVG 1.1//EN" "http://www.w3.org/Graphics/SVG/1.1/DTD/svg11.dtd">
<svg version="1.1" id="Layer_1" xmlns="http://www.w3.org/2000/svg" xmlns:xlink="http://www.w3.org/1999/xlink" x="0px" y="0px"
	 width="210px" height="70px" viewBox="0 0 210 70" enable-background="new 0 0 210 70" xml:space="preserve">
<path fill="#292627" d="M17,0C7.611,0,0,7.612,0,17.001C0,26.392,7.611,34,17,34s17-7.608,17-16.999C34,7.612,26.389,0,17,0z
	 M21.5,16.93h-2.942c0,4.704,0,10.498,0,10.498h-4.365c0,0,0-5.734,0-10.498h-2.074v-3.707h2.074v-2.401
	c0-1.721,0.816-4.403,4.404-4.403l3.23,0.012v3.601c0,0-1.965,0-2.347,0s-0.924,0.191-0.924,1.009v2.184h3.324L21.5,16.93z"/>
<path fill="#292627" d="M52.001,0C42.61,0,35,7.612,35,17.001C35,26.392,42.61,34,52.001,34C61.389,34,69,26.392,69,17.001
	C69,7.612,61.389,0,52.001,0z M61.388,17.192c-0.205,1.039-0.72,2.123-1.538,3.26c-1.772,2.168-3.925,3.599-6.463,4.297h-0.045
	c-2.614,0.703-5.235,0.645-7.858-0.183c-2.287-0.864-4.137-2.243-5.529-4.151c1.388,1.092,2.667,1.637,3.863,1.643l0.03-0.014
	c1.962,0.129,3.637-0.484,5.022-1.852c0.008-0.007,0.017-0.014,0.021-0.02l-0.044-0.053c-0.803,0.036-1.349-0.207-1.651-0.73
	c-0.084-0.35,0-0.65,0.257-0.91c0.145-0.166,0.362-0.316,0.645-0.455c-1.417,0.039-2.395-0.452-2.947-1.48
	c0.426-0.456,0.97-0.675,1.63-0.639l0.008-0.021c-1.684-0.456-2.568-1.274-2.651-2.464c0.433-0.128,0.878-0.197,1.341-0.188V13.21
	c-1.311-0.744-1.97-1.766-1.963-3.047c1.205,0.373,2.396,0.85,3.568,1.424c1.076,0.455,2.008,0.926,2.804,1.417
	c0.675,0.38,1.233,0.851,1.705,1.41l0.021-0.022l0.12-0.09c0.326-1.236,0.871-2.448,1.651-3.652l0.016-0.039
	c0.304-0.438,0.697-0.922,1.188-1.445c0.235-0.234,0.508-0.455,0.818-0.658c0.062,0.037-0.029,0.248-0.272,0.644
	c0.653-0.553,1.273-0.832,1.849-0.849c0.13,0.128-0.099,0.379-0.681,0.734c0.462-0.176,0.979-0.289,1.538-0.355
	c0.242,0.029,0.326,0.148,0.258,0.371c-0.198,0.271-0.855,0.522-1.971,0.766c-0.007,0-0.016,0-0.021,0.008l0.038,0.082
	c1.229-0.047,2.295,0.342,3.205,1.152c0.017,0.016,0.03,0.029,0.045,0.037c1.076,1.037,1.697,2.182,1.872,3.441
	c0.955,0.34,1.917,0.333,2.896-0.033c-0.267,0.717-1.091,1.145-2.493,1.298c-0.009-0.01-0.009-0.01-0.009,0v0.136
	c1.28,0.252,2.146,0.297,2.584,0.145l0.015,0.023C63.669,16.877,62.713,17.239,61.388,17.192z"/>
<path fill="#292627" d="M87,34c-9.389,0-17-7.609-17-17c0-9.389,7.611-17,17-17c9.391,0,17,7.611,17,17
	C104.001,26.391,96.39,34,87,34z M96.47,8.902c0-0.754-0.628-1.367-1.402-1.367H78.902c-0.775,0-1.402,0.613-1.402,1.367v16.354
	c0,0.757,0.627,1.369,1.402,1.369h16.166c0.774,0,1.402-0.612,1.402-1.369V8.902z M90.717,18.904c0-1.158-0.414-1.95-1.451-1.95
	c-0.791,0-1.265,0.535-1.473,1.049c-0.073,0.187-0.095,0.44-0.095,0.699v4.813h-2.864c0,0,0.037-7.813,0-8.621h2.864v1.222
	c-0.005,0.009-0.012,0.021-0.019,0.028h0.019v-0.028c0.382-0.589,1.063-1.423,2.583-1.423c1.885,0,3.299,1.229,3.299,3.879v4.941
	h-2.863V18.904L90.717,18.904z M81.817,13.72h-0.02c-0.962,0-1.582-0.663-1.582-1.489c0-0.847,0.642-1.49,1.619-1.49
	c0.98,0,1.583,0.645,1.604,1.49C83.439,13.057,82.817,13.72,81.817,13.72z M83.249,23.516h-2.864v-8.619h2.864V23.516z"/>
<path fill="#292627" d="M122.001,34C112.611,34,105,26.392,105,17.001C105,7.612,112.611,0,122.001,0S139,7.612,139,17.001
	C139,26.392,131.387,34,122.001,34z M133.367,12.198c-0.309-0.732-0.691-1.439-1.139-2.098c-0.438-0.654-0.947-1.268-1.506-1.826
	c-0.559-0.557-1.174-1.063-1.824-1.505c-0.66-0.446-1.364-0.829-2.097-1.14c-0.745-0.314-1.524-0.558-2.317-0.719
	c-0.813-0.166-1.647-0.251-2.483-0.251s-1.672,0.085-2.481,0.251c-0.795,0.161-1.574,0.402-2.317,0.719
	c-0.729,0.311-1.438,0.693-2.099,1.14c-0.651,0.442-1.269,0.948-1.824,1.505c-0.559,0.561-1.062,1.172-1.506,1.826
	c-0.442,0.658-0.828,1.363-1.14,2.098c-0.313,0.743-0.558,1.523-0.721,2.318c-0.166,0.813-0.249,1.647-0.249,2.483
	s0.083,1.67,0.249,2.481c0.163,0.795,0.403,1.574,0.721,2.32c0.312,0.73,0.691,1.438,1.14,2.095
	c0.438,0.653,0.947,1.269,1.506,1.826c0.561,0.557,1.173,1.063,1.824,1.506c0.658,0.444,1.362,0.828,2.099,1.14
	c0.743,0.314,1.522,0.555,2.317,0.719c0.812,0.168,1.646,0.253,2.481,0.253s1.672-0.085,2.483-0.253
	c0.793-0.164,1.572-0.404,2.317-0.719c0.729-0.312,1.437-0.693,2.097-1.14c0.65-0.44,1.268-0.948,1.824-1.506
	c0.559-0.56,1.064-1.173,1.506-1.826c0.445-0.655,0.83-1.362,1.139-2.095c0.314-0.746,0.558-1.525,0.722-2.32
	c0.166-0.813,0.25-1.646,0.25-2.481s-0.084-1.672-0.25-2.483C133.924,13.724,133.682,12.941,133.367,12.198z M125.193,16.551
	c-0.071-0.181-0.148-0.36-0.229-0.547c-0.219-0.514-0.453-1.024-0.699-1.526c4.158-1.699,5.852-4.143,5.871-4.17
	c1.479,1.795,2.369,4.088,2.396,6.586C132.381,16.862,128.814,16.095,125.193,16.551z M123.458,12.907
	c-1.804-3.31-3.78-5.937-3.938-6.148c0.797-0.19,1.629-0.295,2.481-0.295c2.668,0,5.104,0.992,6.959,2.629
	C128.932,9.132,127.432,11.415,123.458,12.907z M111.688,14.828c0.688-3.264,2.877-5.972,5.815-7.357
	c0.142,0.188,2.088,2.831,3.912,6.071C116.357,14.887,111.967,14.831,111.688,14.828z M119.475,6.771h0.002
	c-0.013,0.002-0.021,0.003-0.035,0.008C119.463,6.772,119.475,6.771,119.475,6.771z M122.29,15.164
	c0.303,0.592,0.592,1.192,0.854,1.791c-0.141,0.04-0.278,0.08-0.416,0.127c-5.688,1.839-8.569,6.954-8.569,6.954
	s0.004,0.004,0.006,0.006c-1.681-1.865-2.701-4.334-2.701-7.041c0-0.113,0.007-0.223,0.011-0.336
	C111.658,16.672,116.863,16.789,122.29,15.164z M123.794,18.726c0.021-0.01,0.047-0.017,0.067-0.022
	c1.484,3.854,2.099,7.081,2.252,8.001c-1.264,0.539-2.653,0.836-4.112,0.836c-2.44,0-4.688-0.84-6.476-2.235
	C115.546,25.261,117.574,20.894,123.794,18.726z M115.523,25.308c0,0-0.096-0.07-0.233-0.186c0.073,0.063,0.157,0.121,0.235,0.18
	L115.523,25.308z M132.402,18.671c-0.469,2.938-2.147,5.473-4.516,7.068c-0.107-0.636-0.67-3.729-2.053-7.526
	C129.238,17.668,132.184,18.603,132.402,18.671z"/>
<path fill="#292627" d="M157.001,0C147.611,0,140,7.61,140,17c0,9.391,7.611,17,17.001,17S174,26.391,174,17
	C174,7.61,166.389,0,157.001,0z M166.848,12.813c-1.136,6.396-7.479,11.813-9.39,13.052c-1.909,1.234-3.647-0.497-4.28-1.807
	c-0.725-1.494-2.89-9.595-3.453-10.267c-0.567-0.672-2.271,0.672-2.271,0.672l-0.826-1.085c0,0,3.457-4.126,6.087-4.644
	c2.788-0.545,2.783,4.281,3.455,6.964c0.646,2.595,1.084,4.075,1.648,4.075s1.648-1.443,2.839-3.661
	c1.188-2.219-0.054-4.18-2.373-2.784C159.215,7.76,167.984,6.42,166.848,12.813z"/>
<path fill="#292627" d="M192,34c-9.391,0-17-7.608-17-16.999C175,7.612,182.609,0,192,0c9.389,0,17,7.612,17,17.001
	C209,26.392,201.389,34,192,34z M201.428,17.362c0-5.359-4.348-9.707-9.709-9.707c-0.564,0-1.121,0.049-1.66,0.143
	c-0.869-0.547-1.895-0.865-2.996-0.865c-3.105,0-5.631,2.521-5.631,5.631c0,1.039,0.283,2.013,0.774,2.849
	c-0.13,0.631-0.196,1.284-0.196,1.952c0,5.36,4.348,9.709,9.709,9.709c0.606,0,1.2-0.058,1.777-0.162
	c0.792,0.427,1.695,0.669,2.66,0.669c3.107,0,5.632-2.521,5.632-5.632c0-0.896-0.212-1.746-0.587-2.501
	C201.35,18.774,201.428,18.078,201.428,17.362z M194.725,23.501c-0.853,0.354-1.871,0.533-3.033,0.533
	c-1.396,0-2.562-0.246-3.478-0.73c-0.651-0.352-1.188-0.828-1.599-1.418c-0.412-0.594-0.622-1.186-0.622-1.754
	c0-0.355,0.137-0.666,0.403-0.917c0.268-0.251,0.604-0.378,1.016-0.378c0.334,0,0.622,0.102,0.854,0.299
	c0.228,0.188,0.416,0.471,0.568,0.831c0.172,0.396,0.355,0.728,0.559,0.987c0.189,0.254,0.465,0.465,0.813,0.631
	c0.354,0.166,0.827,0.251,1.41,0.251c0.803,0,1.461-0.172,1.956-0.509c0.482-0.331,0.719-0.729,0.719-1.211
	c0-0.385-0.123-0.688-0.376-0.924c-0.267-0.244-0.61-0.438-1.036-0.569c-0.438-0.14-1.039-0.286-1.777-0.44
	c-1.011-0.218-1.865-0.473-2.545-0.763c-0.697-0.297-1.26-0.706-1.668-1.219c-0.418-0.523-0.631-1.177-0.631-1.947
	c0-0.733,0.225-1.396,0.659-1.965c0.437-0.565,1.065-1.007,1.888-1.309c0.805-0.298,1.764-0.45,2.848-0.45
	c0.867,0,1.632,0.102,2.269,0.299c0.642,0.201,1.183,0.469,1.604,0.801c0.429,0.332,0.744,0.689,0.941,1.063
	c0.2,0.372,0.305,0.746,0.305,1.105c0,0.349-0.133,0.664-0.396,0.938c-0.27,0.277-0.604,0.417-0.997,0.417
	c-0.356,0-0.644-0.087-0.837-0.261c-0.184-0.16-0.37-0.412-0.579-0.771c-0.241-0.46-0.534-0.823-0.871-1.078
	c-0.323-0.249-0.872-0.376-1.62-0.376c-0.695,0-1.263,0.141-1.683,0.414c-0.405,0.268-0.604,0.572-0.604,0.932
	c0,0.221,0.062,0.406,0.191,0.564c0.141,0.17,0.332,0.316,0.578,0.439c0.255,0.129,0.521,0.231,0.779,0.305
	c0.271,0.074,0.726,0.186,1.346,0.329c0.785,0.167,1.507,0.356,2.146,0.563c0.646,0.207,1.205,0.462,1.658,0.759
	c0.467,0.303,0.832,0.691,1.096,1.156c0.266,0.465,0.396,1.041,0.396,1.709c0,0.799-0.229,1.527-0.683,2.168
	C196.248,22.64,195.584,23.142,194.725,23.501z"/>
<path fill="#CCA851" d="M17,35C7.611,35,0,42.613,0,52.001C0,61.391,7.611,69,17,69c9.39,0,17-7.607,17-16.998
	C34,42.613,26.389,35,17,35z M21.5,51.93h-2.942c0,4.703,0,10.498,0,10.498h-4.364c0,0,0-5.734,0-10.498H12.12v-3.707h2.074v-2.397
	c0-1.724,0.815-4.402,4.405-4.402l3.229,0.013v3.604c0,0-1.965,0-2.347,0c-0.381,0-0.924,0.188-0.924,1.01v2.184h3.324L21.5,51.93z"
	/>
<path fill="#CCA851" d="M52.001,35C42.61,35,35,42.613,35,52.001C35,61.393,42.61,69,52.001,69C61.389,69,69,61.393,69,52.001
	C69,42.613,61.389,35,52.001,35z M61.388,52.193c-0.205,1.037-0.72,2.121-1.538,3.258c-1.772,2.169-3.925,3.6-6.463,4.3h-0.045
	c-2.614,0.703-5.235,0.646-7.858-0.185c-2.287-0.862-4.137-2.244-5.529-4.149c1.388,1.089,2.667,1.634,3.863,1.642l0.03-0.014
	c1.962,0.129,3.637-0.484,5.022-1.852c0.008-0.008,0.017-0.014,0.021-0.021l-0.044-0.053c-0.803,0.037-1.349-0.205-1.651-0.729
	c-0.084-0.353,0-0.65,0.257-0.91c0.145-0.166,0.362-0.316,0.645-0.455c-1.417,0.039-2.395-0.453-2.947-1.48
	c0.426-0.457,0.97-0.676,1.63-0.639l0.008-0.021c-1.684-0.453-2.568-1.271-2.651-2.463c0.433-0.129,0.878-0.195,1.341-0.188V48.21
	c-1.311-0.744-1.97-1.767-1.963-3.047c1.205,0.372,2.396,0.851,3.568,1.423c1.076,0.456,2.008,0.926,2.804,1.417
	c0.675,0.381,1.233,0.851,1.705,1.41l0.021-0.021l0.12-0.094c0.326-1.234,0.871-2.445,1.651-3.65l0.016-0.037
	c0.304-0.439,0.697-0.922,1.188-1.446c0.235-0.231,0.508-0.456,0.818-0.659c0.062,0.037-0.029,0.25-0.272,0.646
	c0.653-0.555,1.273-0.834,1.849-0.853c0.13,0.13-0.099,0.382-0.681,0.733c0.462-0.176,0.979-0.286,1.538-0.354
	c0.242,0.026,0.326,0.146,0.258,0.367c-0.198,0.273-0.855,0.521-1.971,0.77c-0.007,0-0.016,0-0.021,0.009l0.038,0.083
	c1.229-0.049,2.295,0.341,3.205,1.15c0.017,0.018,0.03,0.025,0.045,0.037c1.076,1.036,1.697,2.184,1.872,3.438
	c0.955,0.34,1.917,0.334,2.896-0.031c-0.267,0.716-1.091,1.144-2.493,1.297c-0.009-0.01-0.009-0.01-0.009,0v0.138
	c1.28,0.25,2.146,0.295,2.584,0.146l0.015,0.021C63.669,51.876,62.713,52.24,61.388,52.193z"/>
<path fill="#CCA851" d="M87,69c-9.389,0-17-7.607-17-17c0-9.389,7.611-17,17-17c9.391,0,17,7.611,17,17
	C104.001,61.391,96.39,69,87,69z M96.47,43.902c0-0.754-0.628-1.367-1.402-1.367H78.902c-0.775,0-1.402,0.613-1.402,1.367v16.354
	c0,0.758,0.627,1.369,1.402,1.369h16.166c0.774,0,1.402-0.611,1.402-1.369V43.902z M90.717,53.904c0-1.158-0.414-1.949-1.451-1.949
	c-0.791,0-1.265,0.535-1.473,1.049c-0.073,0.188-0.095,0.439-0.095,0.699v4.812h-2.864c0,0,0.037-7.812,0-8.619h2.864v1.223
	c-0.005,0.01-0.012,0.021-0.019,0.025h0.019v-0.025c0.382-0.588,1.063-1.426,2.583-1.426c1.885,0,3.299,1.229,3.299,3.883v4.939
	h-2.863V53.904L90.717,53.904z M81.817,48.721h-0.02c-0.962,0-1.582-0.664-1.582-1.49c0-0.847,0.642-1.486,1.619-1.486
	c0.98,0,1.583,0.646,1.604,1.486C83.439,48.057,82.817,48.721,81.817,48.721z M83.249,58.516h-2.864v-8.619h2.864V58.516z"/>
<path fill="#CCA851" d="M122.001,69C112.611,69,105,61.393,105,52.001C105,42.611,112.611,35,122.001,35S139,42.613,139,52.001
	C139,61.391,131.387,69,122.001,69z M133.367,47.197c-0.309-0.732-0.691-1.438-1.139-2.098c-0.438-0.654-0.947-1.271-1.506-1.826
	c-0.559-0.562-1.174-1.063-1.824-1.506c-0.66-0.445-1.364-0.828-2.097-1.143c-0.745-0.312-1.524-0.559-2.317-0.717
	c-0.813-0.166-1.647-0.252-2.483-0.252s-1.672,0.086-2.481,0.252c-0.795,0.158-1.574,0.398-2.317,0.717
	c-0.729,0.312-1.438,0.689-2.099,1.143c-0.651,0.438-1.269,0.944-1.824,1.506c-0.559,0.562-1.062,1.172-1.506,1.826
	c-0.442,0.653-0.828,1.361-1.14,2.098c-0.313,0.742-0.558,1.523-0.721,2.318c-0.166,0.812-0.249,1.646-0.249,2.48
	s0.083,1.67,0.249,2.48c0.163,0.795,0.403,1.574,0.721,2.317c0.312,0.729,0.691,1.438,1.14,2.097
	c0.438,0.652,0.947,1.271,1.506,1.826c0.561,0.557,1.173,1.062,1.824,1.506c0.658,0.442,1.362,0.828,2.099,1.139
	c0.743,0.314,1.522,0.558,2.317,0.722c0.812,0.168,1.646,0.251,2.481,0.251s1.672-0.083,2.483-0.251
	c0.793-0.164,1.572-0.401,2.317-0.722c0.729-0.311,1.437-0.69,2.097-1.139c0.65-0.439,1.268-0.949,1.824-1.507
	c0.559-0.562,1.064-1.173,1.506-1.825c0.445-0.654,0.83-1.363,1.139-2.097c0.314-0.743,0.558-1.522,0.722-2.317
	c0.166-0.812,0.25-1.646,0.25-2.48s-0.084-1.672-0.25-2.48C133.924,48.723,133.682,47.939,133.367,47.197z M125.193,51.549
	c-0.071-0.18-0.148-0.359-0.229-0.547c-0.219-0.514-0.453-1.021-0.699-1.525c4.158-1.699,5.852-4.143,5.871-4.168
	c1.479,1.795,2.369,4.086,2.396,6.584C132.381,51.859,128.814,51.094,125.193,51.549z M123.458,47.906
	c-1.804-3.311-3.78-5.938-3.938-6.148c0.797-0.188,1.629-0.294,2.481-0.294c2.668,0,5.104,0.991,6.959,2.63
	C128.932,44.13,127.432,46.415,123.458,47.906z M111.688,49.827c0.688-3.265,2.877-5.972,5.815-7.354
	c0.142,0.188,2.088,2.83,3.912,6.069C116.357,49.885,111.967,49.831,111.688,49.827z M119.475,41.771h0.002
	c-0.013,0-0.021,0-0.035,0.006C119.463,41.771,119.475,41.771,119.475,41.771z M122.29,50.163c0.303,0.592,0.592,1.19,0.854,1.791
	c-0.141,0.041-0.278,0.08-0.416,0.127c-5.688,1.84-8.569,6.955-8.569,6.955s0.004,0.002,0.006,0.006
	c-1.681-1.866-2.701-4.334-2.701-7.041c0-0.11,0.007-0.226,0.011-0.336C111.658,51.67,116.863,51.788,122.29,50.163z
	 M123.794,53.725c0.021-0.01,0.047-0.018,0.067-0.021c1.484,3.854,2.099,7.08,2.252,8.003c-1.264,0.537-2.653,0.834-4.112,0.834
	c-2.44,0-4.688-0.839-6.476-2.234C115.546,60.26,117.574,55.893,123.794,53.725z M115.523,60.307c0,0-0.096-0.07-0.233-0.186
	c0.073,0.062,0.157,0.119,0.235,0.182L115.523,60.307z M132.402,53.67c-0.469,2.938-2.147,5.473-4.516,7.068
	c-0.107-0.639-0.67-3.73-2.053-7.527C129.238,52.666,132.184,53.602,132.402,53.67z"/>
<path fill="#CCA851" d="M157.001,35C147.611,35,140,42.611,140,52c0,9.393,7.611,17,17.001,17S174,61.393,174,52
	C174,42.611,166.389,35,157.001,35z M166.848,47.812c-1.136,6.396-7.479,11.812-9.39,13.056c-1.909,1.231-3.647-0.498-4.28-1.81
	c-0.725-1.494-2.89-9.596-3.453-10.268c-0.567-0.672-2.271,0.672-2.271,0.672l-0.826-1.084c0,0,3.457-4.127,6.087-4.646
	c2.788-0.545,2.783,4.281,3.455,6.967c0.646,2.594,1.084,4.072,1.648,4.072s1.648-1.441,2.839-3.66
	c1.188-2.221-0.054-4.182-2.373-2.783C159.215,42.759,167.984,41.419,166.848,47.812z"/>
<path fill="#CCA851" d="M192,69c-9.391,0-17-7.607-17-16.999C175,42.611,182.609,35,192,35c9.389,0,17,7.613,17,17.001
	C209,61.391,201.389,69,192,69z M201.428,52.361c0-5.358-4.348-9.707-9.709-9.707c-0.564,0-1.121,0.05-1.66,0.144
	c-0.869-0.548-1.895-0.862-2.996-0.862c-3.105,0-5.631,2.521-5.631,5.631c0,1.037,0.283,2.014,0.774,2.85
	c-0.13,0.631-0.196,1.281-0.196,1.951c0,5.359,4.348,9.71,9.709,9.71c0.606,0,1.2-0.06,1.777-0.163
	c0.792,0.426,1.695,0.669,2.66,0.669c3.107,0,5.632-2.521,5.632-5.631c0-0.897-0.212-1.746-0.587-2.501
	C201.35,53.773,201.428,53.077,201.428,52.361z M194.725,58.499c-0.853,0.354-1.871,0.536-3.033,0.536
	c-1.396,0-2.562-0.249-3.478-0.732c-0.651-0.353-1.188-0.826-1.599-1.419c-0.412-0.594-0.622-1.187-0.622-1.752
	c0-0.354,0.137-0.666,0.403-0.917c0.268-0.251,0.604-0.378,1.016-0.378c0.334,0,0.622,0.103,0.854,0.3
	c0.228,0.188,0.416,0.471,0.568,0.829c0.172,0.397,0.355,0.729,0.559,0.988c0.189,0.253,0.465,0.465,0.813,0.631
	c0.354,0.166,0.827,0.25,1.41,0.25c0.803,0,1.461-0.171,1.956-0.509c0.482-0.331,0.719-0.729,0.719-1.213
	c0-0.381-0.123-0.686-0.376-0.922c-0.267-0.242-0.61-0.438-1.036-0.569c-0.438-0.14-1.039-0.285-1.777-0.438
	c-1.011-0.22-1.865-0.474-2.545-0.765c-0.697-0.297-1.26-0.705-1.668-1.219c-0.418-0.522-0.631-1.179-0.631-1.947
	c0-0.729,0.225-1.396,0.659-1.965c0.437-0.563,1.065-1.006,1.888-1.31c0.805-0.297,1.764-0.449,2.848-0.449
	c0.867,0,1.632,0.103,2.269,0.299c0.642,0.201,1.183,0.47,1.604,0.802c0.429,0.332,0.744,0.688,0.941,1.063
	c0.2,0.373,0.305,0.748,0.305,1.104c0,0.352-0.133,0.664-0.396,0.938c-0.27,0.275-0.604,0.414-0.997,0.414
	c-0.356,0-0.644-0.086-0.837-0.26c-0.184-0.158-0.37-0.41-0.579-0.771c-0.241-0.459-0.534-0.822-0.871-1.078
	c-0.323-0.248-0.872-0.375-1.62-0.375c-0.695,0-1.263,0.142-1.683,0.413c-0.405,0.27-0.604,0.57-0.604,0.936
	c0,0.221,0.062,0.403,0.191,0.562c0.141,0.169,0.332,0.313,0.578,0.438c0.255,0.129,0.521,0.229,0.779,0.305
	c0.271,0.074,0.726,0.188,1.346,0.328c0.785,0.168,1.507,0.354,2.146,0.562c0.646,0.207,1.205,0.463,1.658,0.759
	c0.467,0.304,0.832,0.692,1.096,1.155c0.266,0.467,0.396,1.043,0.396,1.709c0,0.802-0.229,1.527-0.683,2.17
	C196.248,57.639,195.584,58.141,194.725,58.499z"/>
</svg>
