<?xml version="1.0" encoding="utf-8"?>
<!-- Generator: Adobe Illustrator 16.0.0, SVG Export Plug-In . SVG Version: 6.00 Build 0)  -->
<!DOCTYPE svg PUBLIC "-//W3C//DTD SVG 1.1//EN" "http://www.w3.org/Graphics/SVG/1.1/DTD/svg11.dtd">
<svg version="1.1" id="Layer_1" xmlns="http://www.w3.org/2000/svg" xmlns:xlink="http://www.w3.org/1999/xlink" x="0px" y="0px"
	 width="137px" height="51px" viewBox="0 0 137 51" enable-background="new 0 0 137 51" xml:space="preserve">
<path fill="#292627" d="M26.866,2.856c-0.992,0.442-2.062,0.741-3.182,0.875c1.145-0.688,2.021-1.775,2.436-3.073
	c-1.07,0.636-2.255,1.098-3.518,1.348c-1.01-1.08-2.45-1.754-4.043-1.754c-3.06,0-5.539,2.487-5.539,5.555
	c0,0.436,0.049,0.858,0.143,1.265C8.56,6.841,4.477,4.63,1.746,1.269c-0.477,0.82-0.75,1.773-0.75,2.792
	c0,1.927,0.979,3.627,2.465,4.624c-0.908-0.03-1.763-0.28-2.511-0.696c0,0.023,0,0.046,0,0.07c0,2.69,1.91,4.937,4.444,5.446
	C4.93,13.632,4.44,13.7,3.934,13.7c-0.357,0-0.703-0.034-1.042-0.101c0.704,2.208,2.75,3.812,5.173,3.857
	c-1.896,1.489-4.283,2.376-6.879,2.376c-0.447,0-0.888-0.025-1.321-0.076c2.452,1.575,5.363,2.495,8.491,2.495
	c10.188,0,15.76-8.464,15.76-15.806c0-0.239-0.004-0.479-0.016-0.718C25.183,4.948,26.125,3.97,26.866,2.856z"/>
<path fill="#292627" d="M48.866,0.251h-17c-2.771,0-4,1.229-4,4v6v11c0,2.771,1.229,4,4,4h17c2.771,0,4-1.229,4-4v-11v-6
	C52.866,1.48,51.638,0.251,48.866,0.251z M49.786,2.746l0.574-0.002v0.572V7.15l-4.394,0.015L45.95,2.757L49.786,2.746z
	 M36.655,10.082c0.833-1.152,2.186-1.908,3.712-1.908c1.527,0,2.879,0.756,3.712,1.908c0.542,0.753,0.866,1.673,0.866,2.67
	c0,2.523-2.055,4.577-4.578,4.577s-4.577-2.054-4.577-4.577C35.789,11.754,36.113,10.834,36.655,10.082z M50.866,21.25
	c0,1.375-0.625,2-2,2h-17c-1.375,0-2-0.625-2-2l0.029-11.169h3.883c-0.335,0.825-0.522,1.727-0.522,2.67
	c0,3.921,3.188,7.111,7.11,7.111c3.923,0,7.111-3.19,7.111-7.111c0-0.943-0.188-1.845-0.524-2.67h3.885L50.866,21.25z"/>
<g>
	<g>
		<path fill="#292627" d="M54.869,24.251h4.999V8.246h-4.999V24.251z M56.897,0.251c-1.833,0-3.031,1.208-3.031,2.796
			c0,1.553,1.161,2.797,2.96,2.797h0.036c1.869,0,3.034-1.244,3.034-2.797C59.858,1.459,58.729,0.251,56.897,0.251z M78.866,24.241
			l-0.007-8.994c0-4.973-2.473-7.002-5.998-7.002c-2.844,0-4.282,0.897-5,2v-2h-4.997c0.069,1.518,0,16.006,0,16.006l4.997-0.01
			V15.2c0-0.483,0.034-0.967,0.178-1.313c0.39-0.968,1.271-1.969,2.75-1.969c1.938,0,3.067,1.151,3.067,3.326v9.003L78.866,24.241z"
			/>
	</g>
</g>
<g>
	<g>
		<path fill="#292627" d="M91.668,11.747c0,0,2.889-0.212,2.889-3.541s-2.361-4.954-5.354-4.954h-9.335v19h9.151
			c0,0,6.191-0.207,6.191-5.885C95.211,16.366,95.477,11.747,91.668,11.747z M83.934,6.251h5.086c0,0,1.521,0.308,1.521,2.242
			c0,1.937-1.646,1.758-2.536,1.758h-4.066v-4H83.934z M89.02,19.251h-5.086v-6h5.086c0,0,2.178,0.301,2.178,2.882
			C91.197,18.311,89.801,19.233,89.02,19.251z M103.229,7.984c-7.274,0-7.269,7.149-7.269,7.149s-0.496,7.112,7.269,7.112
			c0,0,6.476,0.363,6.476-4.948h-3.328c0,0,0.108,2.001-3.03,2.001c0,0-3.33,0.219-3.33-3.236h9.805
			C109.812,16.063,110.887,7.984,103.229,7.984z M99.973,13.579c0,0,0.406-2.868,3.328-2.868c2.924,0,2.887,2.868,2.887,2.868
			H99.973z M106.307,6.251v-2L99.16,4.347l0.027,1.904H106.307z"/>
	</g>
</g>
<path fill="#292627" d="M135.613,10.235c-0.162-0.804-0.41-1.594-0.729-2.35c-0.312-0.741-0.7-1.456-1.149-2.124
	c-0.448-0.663-0.961-1.283-1.527-1.848c-0.564-0.566-1.188-1.08-1.848-1.527c-0.67-0.453-1.383-0.84-2.125-1.154
	c-0.756-0.318-1.543-0.564-2.353-0.727c-0.821-0.169-1.671-0.255-2.519-0.255s-1.691,0.086-2.518,0.255
	c-0.805,0.162-1.594,0.409-2.352,0.727c-0.741,0.315-1.454,0.702-2.124,1.154c-0.662,0.447-1.281,0.96-1.847,1.527
	c-0.565,0.565-1.08,1.187-1.527,1.848c-0.452,0.668-0.842,1.382-1.15,2.124c-0.32,0.756-0.563,1.546-0.729,2.35
	c-0.168,0.821-0.253,1.67-0.253,2.516c0,0.847,0.085,1.696,0.253,2.519c0.165,0.803,0.41,1.594,0.729,2.349
	c0.313,0.741,0.7,1.456,1.15,2.124c0.447,0.664,0.962,1.284,1.527,1.849c0.563,0.563,1.188,1.076,1.847,1.526
	c0.67,0.452,1.383,0.838,2.124,1.151c0.758,0.322,1.545,0.563,2.352,0.728c0.824,0.169,1.67,0.254,2.518,0.254
	s1.693-0.085,2.518-0.254c0.807-0.164,1.596-0.41,2.352-0.728c0.742-0.316,1.457-0.702,2.125-1.151
	c0.664-0.45,1.283-0.963,1.849-1.526c0.565-0.565,1.078-1.188,1.526-1.849c0.451-0.668,0.84-1.383,1.149-2.124
	c0.32-0.755,0.563-1.546,0.729-2.349c0.168-0.823,0.255-1.671,0.255-2.519C135.868,11.905,135.783,11.057,135.613,10.235z
	 M134.038,12.645c-0.151-0.033-3.767-0.81-7.437-0.349c-0.074-0.183-0.151-0.367-0.232-0.552c-0.223-0.522-0.459-1.04-0.711-1.548
	c4.218-1.72,5.929-4.195,5.949-4.225C133.111,7.788,134.018,10.112,134.038,12.645z M130.419,4.74
	c-0.026,0.042-1.546,2.356-5.579,3.866c-1.824-3.353-3.832-6.017-3.99-6.228c0.808-0.196,1.648-0.303,2.518-0.303
	C126.07,2.075,128.537,3.084,130.419,4.74z M120.809,2.386c0,0.001-0.002,0.002-0.002,0.002s-0.014,0.003-0.029,0.007
	C120.786,2.392,120.798,2.39,120.809,2.386z M118.811,3.096c0.144,0.191,2.115,2.867,3.967,6.151
	c-5.129,1.362-9.574,1.309-9.858,1.304C113.609,7.244,115.833,4.502,118.811,3.096z M112.689,12.751
	c0-0.112,0.004-0.225,0.008-0.336c0.189,0.004,5.464,0.123,10.962-1.521c0.305,0.598,0.598,1.206,0.866,1.813
	c-0.144,0.04-0.282,0.083-0.42,0.128c-5.76,1.861-8.686,7.046-8.686,7.046s0.005,0.004,0.005,0.006
	C113.723,17.995,112.689,15.494,112.689,12.751z M123.366,23.429c-2.584,0-4.956-0.92-6.802-2.449
	c0.143,0.112,0.24,0.188,0.24,0.188s2.047-4.464,8.379-6.669c0.021-0.01,0.047-0.016,0.066-0.022
	c1.503,3.901,2.125,7.172,2.282,8.104C126.253,23.127,124.843,23.429,123.366,23.429z M129.332,21.605
	c-0.107-0.645-0.678-3.776-2.077-7.624c3.447-0.551,6.435,0.395,6.654,0.465C133.432,17.421,131.729,19.987,129.332,21.605z"/>
<path fill="#CCA851" d="M26.866,28.855c-0.992,0.438-2.062,0.736-3.182,0.875c1.145-0.688,2.021-1.773,2.436-3.072
	c-1.07,0.637-2.255,1.1-3.518,1.35c-1.01-1.08-2.45-1.756-4.043-1.756c-3.06,0-5.539,2.484-5.539,5.555
	c0,0.438,0.049,0.859,0.143,1.27c-4.603-0.229-8.686-2.443-11.417-5.805c-0.477,0.816-0.75,1.771-0.75,2.791
	c0,1.93,0.979,3.627,2.465,4.625C2.553,34.66,1.698,34.41,0.95,33.994c0,0.021,0,0.047,0,0.068c0,2.688,1.91,4.938,4.444,5.445
	c-0.465,0.127-0.955,0.193-1.46,0.193c-0.357,0-0.703-0.033-1.042-0.102c0.704,2.209,2.75,3.812,5.173,3.854
	c-1.896,1.488-4.283,2.379-6.879,2.379c-0.447,0-0.888-0.023-1.321-0.078c2.452,1.576,5.363,2.496,8.491,2.496
	c10.188,0,15.76-8.465,15.76-15.809c0-0.236-0.004-0.479-0.016-0.719C25.183,30.945,26.125,29.968,26.866,28.855z"/>
<path fill="#CCA851" d="M48.866,26.251h-17c-2.771,0-4,1.229-4,4.002v6v10.998c0,2.771,1.229,4,4,4h17c2.771,0,4-1.229,4-4V36.253
	v-6C52.866,27.482,51.638,26.251,48.866,26.251z M49.786,28.748l0.574-0.002v0.57v3.834l-4.394,0.018L45.95,28.76L49.786,28.748z
	 M36.655,36.082c0.833-1.152,2.186-1.906,3.712-1.906c1.527,0,2.879,0.754,3.712,1.906c0.542,0.756,0.866,1.674,0.866,2.67
	c0,2.521-2.055,4.578-4.578,4.578s-4.577-2.057-4.577-4.578C35.789,37.755,36.113,36.837,36.655,36.082z M50.866,47.251
	c0,1.375-0.625,2-2,2h-17c-1.375,0-2-0.625-2-2l0.029-11.17h3.883c-0.335,0.826-0.522,1.729-0.522,2.67
	c0,3.922,3.188,7.108,7.11,7.108c3.923,0,7.111-3.188,7.111-7.108c0-0.94-0.188-1.845-0.524-2.67h3.885L50.866,47.251z"/>
<g>
	<g>
		<path fill="#CCA851" d="M54.869,50.251h4.999V34.246h-4.999V50.251z M56.897,26.251c-1.833,0-3.031,1.207-3.031,2.797
			c0,1.556,1.161,2.798,2.96,2.798h0.036c1.869,0,3.034-1.242,3.034-2.798C59.858,27.458,58.729,26.251,56.897,26.251z
			 M78.866,50.24l-0.007-8.992c0-4.977-2.473-7.002-5.998-7.002c-2.844,0-4.282,0.895-5,2v-2h-4.997c0.069,1.518,0,16.006,0,16.006
			l4.997-0.012v-9.039c0-0.482,0.034-0.969,0.178-1.314c0.39-0.967,1.271-1.971,2.75-1.971c1.938,0,3.067,1.154,3.067,3.328v9.004
			L78.866,50.24z"/>
	</g>
</g>
<g>
	<g>
		<path fill="#CCA851" d="M91.668,37.748c0,0,2.889-0.213,2.889-3.541c0-3.33-2.361-4.955-5.354-4.955h-9.335v19h9.151
			c0,0,6.191-0.207,6.191-5.885C95.211,42.367,95.477,37.748,91.668,37.748z M83.934,32.251h5.086c0,0,1.521,0.312,1.521,2.242
			c0,1.938-1.646,1.758-2.536,1.758h-4.066v-4H83.934z M89.02,45.251h-5.086v-6h5.086c0,0,2.178,0.302,2.178,2.883
			C91.197,44.312,89.801,45.232,89.02,45.251z M103.229,33.982c-7.274,0-7.269,7.146-7.269,7.146s-0.496,7.113,7.269,7.113
			c0,0,6.476,0.361,6.476-4.949h-3.328c0,0,0.108,2.002-3.03,2.002c0,0-3.33,0.221-3.33-3.234h9.805
			C109.812,42.062,110.887,33.982,103.229,33.982z M99.973,39.58c0,0,0.406-2.869,3.328-2.869c2.924,0,2.887,2.869,2.887,2.869
			H99.973z M106.307,32.251v-2L99.16,30.35l0.027,1.901H106.307z"/>
	</g>
</g>
<path fill="#CCA851" d="M135.613,36.236c-0.162-0.803-0.41-1.59-0.729-2.35c-0.312-0.742-0.7-1.457-1.149-2.123
	c-0.448-0.666-0.961-1.283-1.527-1.85c-0.564-0.564-1.188-1.08-1.848-1.525c-0.67-0.455-1.383-0.844-2.125-1.152
	c-0.756-0.32-1.543-0.565-2.353-0.729c-0.821-0.169-1.671-0.257-2.519-0.257s-1.691,0.088-2.518,0.257
	c-0.805,0.16-1.594,0.411-2.352,0.728c-0.741,0.312-1.454,0.701-2.124,1.148c-0.662,0.449-1.281,0.965-1.847,1.529
	c-0.565,0.562-1.08,1.188-1.527,1.85c-0.452,0.668-0.842,1.381-1.15,2.125c-0.32,0.758-0.563,1.545-0.729,2.35
	c-0.168,0.822-0.253,1.672-0.253,2.516c0,0.846,0.085,1.697,0.253,2.518c0.165,0.803,0.41,1.594,0.729,2.354
	c0.313,0.74,0.7,1.455,1.15,2.125c0.447,0.664,0.962,1.279,1.527,1.85c0.563,0.562,1.188,1.074,1.847,1.523
	c0.67,0.451,1.383,0.842,2.124,1.15c0.758,0.318,1.545,0.563,2.352,0.729c0.824,0.17,1.67,0.254,2.518,0.254
	s1.693-0.084,2.518-0.254c0.807-0.164,1.596-0.41,2.352-0.729c0.742-0.314,1.457-0.705,2.125-1.15
	c0.664-0.449,1.283-0.961,1.849-1.523c0.565-0.566,1.078-1.189,1.526-1.85c0.451-0.67,0.84-1.385,1.149-2.125
	c0.32-0.76,0.563-1.547,0.729-2.354c0.168-0.818,0.255-1.672,0.255-2.518C135.868,37.908,135.783,37.059,135.613,36.236z
	 M134.038,38.645c-0.151-0.031-3.767-0.81-7.437-0.349c-0.074-0.187-0.151-0.368-0.232-0.551c-0.223-0.521-0.459-1.039-0.711-1.548
	c4.218-1.721,5.929-4.194,5.949-4.229C133.111,33.787,134.018,36.115,134.038,38.645z M130.419,30.742
	c-0.026,0.043-1.546,2.355-5.579,3.867c-1.824-3.357-3.832-6.02-3.99-6.232c0.808-0.195,1.648-0.301,2.518-0.301
	C126.07,28.076,128.537,29.083,130.419,30.742z M120.809,28.384c0,0.005-0.002,0.005-0.002,0.005s-0.014,0.006-0.029,0.01
	C120.786,28.395,120.798,28.391,120.809,28.384z M118.811,29.093c0.144,0.193,2.115,2.867,3.967,6.152
	c-5.129,1.362-9.574,1.312-9.858,1.305C113.609,33.244,115.833,30.503,118.811,29.093z M112.689,38.753
	c0-0.11,0.004-0.228,0.008-0.338c0.189,0.006,5.464,0.125,10.962-1.521c0.305,0.599,0.598,1.207,0.866,1.812
	c-0.144,0.041-0.282,0.084-0.42,0.129c-5.76,1.859-8.686,7.047-8.686,7.047s0.005,0.008,0.005,0.01
	C113.723,43.998,112.689,41.496,112.689,38.753z M123.366,49.434c-2.584,0-4.956-0.92-6.802-2.449
	c0.143,0.111,0.24,0.188,0.24,0.188s2.047-4.465,8.379-6.67c0.021-0.008,0.047-0.019,0.066-0.021
	c1.503,3.899,2.125,7.174,2.282,8.104C126.253,49.132,124.843,49.434,123.366,49.434z M129.332,47.609
	c-0.107-0.646-0.678-3.775-2.077-7.625c3.447-0.551,6.435,0.395,6.654,0.465C133.432,43.421,131.729,45.988,129.332,47.609z"/>
</svg>
